{
 "cells": [
  {
   "cell_type": "code",
   "execution_count": 22,
   "metadata": {},
   "outputs": [],
   "source": [
    "import os\n",
    "import json\n",
    "import cv2\n",
    "import glob\n",
    "import numpy as np"
   ]
  },
  {
   "cell_type": "code",
   "execution_count": 23,
   "metadata": {},
   "outputs": [],
   "source": [
    "IDS = [\n",
    "    # 107884306,\n",
    "    # 106036163,\n",
    "    # 106244180,\n",
    "    106551257,\n",
    "    106390524,\n",
    "    108312154,\n",
    "    108054353,\n",
    "    113748359,\n",
    "    105988462,\n",
    "    105811271,\n",
    "    105722608,\n",
    "    106432774,\n",
    "    106964471,\n",
    "    109933221,\n",
    "    105908345,\n",
    "    106340625,\n",
    "    107046859,\n",
    "    105722593,\n",
    "    105880763,\n",
    "    106403724,\n",
    "    107017522\n",
    "    ]"
   ]
  },
  {
   "cell_type": "markdown",
   "metadata": {},
   "source": [
    "First let's download everything. This should just be run overnight."
   ]
  },
  {
   "cell_type": "code",
   "execution_count": 24,
   "metadata": {},
   "outputs": [],
   "source": [
    "def get_climb(id):\n",
    "    with open('stats.js') as dataFile:\n",
    "        data = dataFile.read()\n",
    "        obj = data[data.find('{') : data.rfind('}')+1]\n",
    "        jsonObj = json.loads(obj)\n",
    "        return jsonObj[str(id)]\n",
    "\n",
    "def download_vid(id):\n",
    "    climb = get_climb(id)\n",
    "    url = climb[\"src\"]\n",
    "    cmd = f\"youtube-dl -o proc/{id}/orig {url}\"\n",
    "    os.system(cmd)\n",
    "\n",
    "def make_dir_structure(id):\n",
    "    os.makedirs(f\"proc/{id}\", exist_ok=True)\n",
    "    os.makedirs(f\"proc/{id}/clean\", exist_ok=True)\n",
    "    os.makedirs(f\"proc/{id}/squares\", exist_ok=True)\n",
    "    os.makedirs(f\"proc/{id}/mat_fw\", exist_ok=True)\n",
    "    os.makedirs(f\"proc/{id}/mat_bw\", exist_ok=True)\n",
    "    os.makedirs(f\"proc/{id}/mat_mean\", exist_ok=True)\n",
    "    os.makedirs(f\"proc/{id}/hidden\", exist_ok=True)"
   ]
  },
  {
   "cell_type": "code",
   "execution_count": null,
   "metadata": {},
   "outputs": [],
   "source": [
    "for ID in IDS:\n",
    "    make_dir_structure(ID)\n",
    "    download_vid(ID)"
   ]
  },
  {
   "cell_type": "markdown",
   "metadata": {},
   "source": [
    "Then we need to interact with the video and do some tracking. We'll track \"center coordinates\" with the mouse tracking over the belly button. We'll also size the square needed to contain the climber at their biggest."
   ]
  },
  {
   "cell_type": "code",
   "execution_count": 26,
   "metadata": {},
   "outputs": [],
   "source": [
    "def smooth(X, p=8):\n",
    "    Xo = []\n",
    "    for i,x in enumerate(X):\n",
    "        if i < p:\n",
    "            Xo.append(int(x))\n",
    "        elif i > len(X) - p:\n",
    "            Xo.append(int(x))\n",
    "        else:\n",
    "            Xo.append(int(np.mean(X[i-p:i+p+1])))\n",
    "    return Xo\n",
    "\n",
    "clicking = False\n",
    "curX = 0\n",
    "curY = 0\n",
    "def run_interactive_tracking(ID):\n",
    "    \n",
    "    vid_file = glob.glob(f\"proc/{ID}/orig*\")[0]\n",
    "    \n",
    "    cmd = f\"ffmpeg -i {vid_file} proc/{ID}/clean/%04d.png\"\n",
    "    os.system(cmd)\n",
    "\n",
    "    im_files = sorted(glob.glob(f\"proc/{ID}/clean/*.png\"))\n",
    "\n",
    "    posX = []\n",
    "    posY = []\n",
    "    L = 10\n",
    "\n",
    "    global clicking, curX, curY\n",
    "    curX = 0\n",
    "    curY = 0\n",
    "    clicking = False\n",
    "    def onMouse(event, x, y, flags, param):\n",
    "        global clicking, curX, curY\n",
    "        if event == cv2.EVENT_LBUTTONDOWN:\n",
    "            clicking = True\n",
    "        elif event == cv2.EVENT_MOUSEMOVE:\n",
    "            curX = x\n",
    "            curY = y\n",
    "        elif event == cv2.EVENT_LBUTTONUP:\n",
    "            clicking = False\n",
    "\n",
    "    i = 0\n",
    "    while i < len(im_files):\n",
    "        frame = cv2.imread(im_files[i])\n",
    "        pframe = frame.copy()\n",
    "        cv2.rectangle(pframe, (curX-L, curY-L), (curX+L, curY+L), (0,0,0), 5)\n",
    "        cv2.line(pframe, (curX, curY+L), (curX, curY-L), (0,0,0), 2)\n",
    "        cv2.line(pframe, (curX-L, curY), (curX+L, curY), (0,0,0), 2)\n",
    "\n",
    "        cv2.imshow(\"Track That Thing\", pframe)\n",
    "        if i == 0:\n",
    "            cv2.setMouseCallback(\"Track That Thing\", onMouse)\n",
    "        \n",
    "\n",
    "        while True:\n",
    "            pframe = frame.copy()\n",
    "            cv2.rectangle(pframe, (curX-L, curY-L), (curX+L, curY+L), (0,0,0), 5)\n",
    "            cv2.line(pframe, (curX, curY+L), (curX, curY-L), (0,0,0), 2)\n",
    "            cv2.line(pframe, (curX-L, curY), (curX+L, curY), (0,0,0), 2)\n",
    "\n",
    "            cv2.imshow(\"Track That Thing\", pframe)\n",
    "            kp = cv2.waitKey(100)\n",
    "            \n",
    "            if kp == ord('b'):\n",
    "                L += 1\n",
    "            elif kp == 81:\n",
    "                posX.pop()\n",
    "                posY.pop()\n",
    "                i -= 1\n",
    "                break\n",
    "            elif clicking:\n",
    "                posX.append(curX)\n",
    "                posY.append(curY)\n",
    "                i += 1\n",
    "                break\n",
    "    cv2.destroyAllWindows()\n",
    "    \n",
    "    posX = smooth(posX)\n",
    "    posY = smooth(posY)\n",
    "\n",
    "    with open(f'proc/{ID}/center_points.txt', 'w') as f:\n",
    "        for (x,y) in zip(posX,posY):\n",
    "            f.write(f\"{int(x)},{int(y)}\\n\")\n",
    "    \n",
    "    with open(f'proc/{ID}/len.txt', 'w') as f:\n",
    "            f.write(f\"{int(L)}\")"
   ]
  },
  {
   "cell_type": "code",
   "execution_count": 27,
   "metadata": {},
   "outputs": [
    {
     "name": "stderr",
     "output_type": "stream",
     "text": [
      "ffmpeg version 4.2.4-1ubuntu0.1 Copyright (c) 2000-2020 the FFmpeg developers\n",
      "  built with gcc 9 (Ubuntu 9.3.0-10ubuntu2)\n",
      "  configuration: --prefix=/usr --extra-version=1ubuntu0.1 --toolchain=hardened --libdir=/usr/lib/x86_64-linux-gnu --incdir=/usr/include/x86_64-linux-gnu --arch=amd64 --enable-gpl --disable-stripping --enable-avresample --disable-filter=resample --enable-avisynth --enable-gnutls --enable-ladspa --enable-libaom --enable-libass --enable-libbluray --enable-libbs2b --enable-libcaca --enable-libcdio --enable-libcodec2 --enable-libflite --enable-libfontconfig --enable-libfreetype --enable-libfribidi --enable-libgme --enable-libgsm --enable-libjack --enable-libmp3lame --enable-libmysofa --enable-libopenjpeg --enable-libopenmpt --enable-libopus --enable-libpulse --enable-librsvg --enable-librubberband --enable-libshine --enable-libsnappy --enable-libsoxr --enable-libspeex --enable-libssh --enable-libtheora --enable-libtwolame --enable-libvidstab --enable-libvorbis --enable-libvpx --enable-libwavpack --enable-libwebp --enable-libx265 --enable-libxml2 --enable-libxvid --enable-libzmq --enable-libzvbi --enable-lv2 --enable-omx --enable-openal --enable-opencl --enable-opengl --enable-sdl2 --enable-libdc1394 --enable-libdrm --enable-libiec61883 --enable-nvenc --enable-chromaprint --enable-frei0r --enable-libx264 --enable-shared\n",
      "  libavutil      56. 31.100 / 56. 31.100\n",
      "  libavcodec     58. 54.100 / 58. 54.100\n",
      "  libavformat    58. 29.100 / 58. 29.100\n",
      "  libavdevice    58.  8.100 / 58.  8.100\n",
      "  libavfilter     7. 57.100 /  7. 57.100\n",
      "  libavresample   4.  0.  0 /  4.  0.  0\n",
      "  libswscale      5.  5.100 /  5.  5.100\n",
      "  libswresample   3.  5.100 /  3.  5.100\n",
      "  libpostproc    55.  5.100 / 55.  5.100\n",
      "Input #0, mov,mp4,m4a,3gp,3g2,mj2, from 'proc/106390524/orig.mp4':\n",
      "  Metadata:\n",
      "    major_brand     : isom\n",
      "    minor_version   : 512\n",
      "    compatible_brands: isomiso2avc1mp41\n",
      "    encoder         : Lavf58.29.100\n",
      "  Duration: 00:01:14.79, start: 0.000000, bitrate: 4592 kb/s\n",
      "    Stream #0:0(und): Video: h264 (High) (avc1 / 0x31637661), yuv420p(tv, bt709), 1920x1080 [SAR 1:1 DAR 16:9], 4460 kb/s, 30 fps, 30 tbr, 15360 tbn, 60 tbc (default)\n",
      "    Metadata:\n",
      "      handler_name    : ISO Media file produced by Google Inc.\n",
      "    Stream #0:1(und): Audio: aac (LC) (mp4a / 0x6134706D), 44100 Hz, stereo, fltp, 128 kb/s (default)\n",
      "    Metadata:\n",
      "      handler_name    : ISO Media file produced by Google Inc.\n",
      "Stream mapping:\n",
      "  Stream #0:0 -> #0:0 (h264 (native) -> png (native))\n",
      "Press [q] to stop, [?] for help\n",
      "Output #0, image2, to 'proc/106390524/clean/%04d.png':\n",
      "  Metadata:\n",
      "    major_brand     : isom\n",
      "    minor_version   : 512\n",
      "    compatible_brands: isomiso2avc1mp41\n",
      "    encoder         : Lavf58.29.100\n",
      "    Stream #0:0(und): Video: png, rgb24, 1920x1080 [SAR 1:1 DAR 16:9], q=2-31, 200 kb/s, 30 fps, 30 tbn, 30 tbc (default)\n",
      "    Metadata:\n",
      "      handler_name    : ISO Media file produced by Google Inc.\n",
      "      encoder         : Lavc58.54.100 png\n",
      "frame= 2242 fps= 36 q=-0.0 Lsize=N/A time=00:01:14.73 bitrate=N/A speed= 1.2x    \n",
      "video:8811040kB audio:0kB subtitle:0kB other streams:0kB global headers:0kB muxing overhead: unknown\n"
     ]
    }
   ],
   "source": [
    "for ID in IDS[1:2]:\n",
    "    run_interactive_tracking(ID)"
   ]
  },
  {
   "cell_type": "markdown",
   "metadata": {},
   "source": [
    "Now that we have the object tracked, we can do all the processing?"
   ]
  },
  {
   "cell_type": "code",
   "execution_count": 31,
   "metadata": {},
   "outputs": [],
   "source": [
    "def get_crop_coords(xc,yc,L,w,h):\n",
    "    x1 = xc - L\n",
    "    x2 = xc + L\n",
    "    y1 = yc - L\n",
    "    y2 = yc + L\n",
    "\n",
    "    if x1 < 0:\n",
    "        x1 = 0\n",
    "        x2 = x1 + 2*L\n",
    "    elif x2 > w:\n",
    "        x2 = w\n",
    "        x1 = x2 - 2*L\n",
    "    \n",
    "    if y1 < 0:\n",
    "        y1 = 0\n",
    "        y2 = y1 + 2*L\n",
    "    elif y2 > h:\n",
    "        y2 = h\n",
    "        y1 = y2 - 2*L\n",
    "    \n",
    "    return x1,x2,y1,y2\n",
    "\n",
    "def crop_squares(id):\n",
    "    im_files = sorted(glob.glob(f\"proc/{id}/clean/*.png\"))\n",
    "    arr_cp = np.loadtxt(f\"proc/{id}/center_points.txt\", delimiter=\",\", dtype=int)\n",
    "    L = np.loadtxt(f\"proc/{id}/len.txt\", delimiter=\",\", dtype=int)\n",
    "    X = arr_cp[:,0]\n",
    "    Y = arr_cp[:,1]\n",
    "\n",
    "    for i in range(len(X)):\n",
    "        im = cv2.imread(im_files[i])\n",
    "        h,w = im.shape[0:2]\n",
    "\n",
    "        x1,x2,y1,y2 = get_crop_coords(X[i], Y[i], L, w, h)\n",
    "\n",
    "\n",
    "        out = im[y1:y2, x1:x2, :]\n",
    "        cv2.imwrite(f\"proc/{id}/squares/{i:04}.png\", out)\n",
    "\n",
    "def mat_squares(id):\n",
    "    cmd = f\"ffmpeg -y -i proc/{id}/squares/%4d.png -pix_fmt yuv420p proc/{id}/sq_fw.mp4\"\n",
    "    os.system(cmd)\n",
    "\n",
    "    cmd = f\"ffmpeg -y -i proc/{id}/squares/%4d.png -pix_fmt yuv420p -vf reverse proc/{id}/sq_bw.mp4\"\n",
    "    os.system(cmd)\n",
    "\n",
    "    cmd = f\"\"\"\n",
    "                python working/RobustVideoMatting/inference.py \\\\\n",
    "                --device cuda \\\\\n",
    "                --variant resnet50 \\\\\n",
    "                --checkpoint working/RobustVideoMatting/rvm_resnet50.pth \\\\\n",
    "                --input-source proc/{id}/sq_fw.mp4 \\\\\n",
    "                --output-type png_sequence \\\\\n",
    "                --output-alpha proc/{id}/mat_fw \\\\\n",
    "                --seq-chunk 12\n",
    "            \"\"\"\n",
    "    os.system(cmd)\n",
    "\n",
    "    cmd = f\"\"\"\n",
    "                python working/RobustVideoMatting/inference.py \\\\\n",
    "                --device cuda \\\\\n",
    "                --variant resnet50 \\\\\n",
    "                --checkpoint working/RobustVideoMatting/rvm_resnet50.pth \\\\\n",
    "                --input-source proc/{id}/sq_bw.mp4 \\\\\n",
    "                --output-type png_sequence \\\\\n",
    "                --output-alpha proc/{id}/mat_bw \\\\\n",
    "                --seq-chunk 12\n",
    "            \"\"\"\n",
    "    os.system(cmd)\n",
    "\n",
    "    fw_frames = sorted(glob.glob(f\"proc/{id}/mat_fw/*.png\"))\n",
    "    bw_frames = sorted(glob.glob(f\"proc/{id}/mat_bw/*.png\"))\n",
    "    nframes = len(fw_frames)\n",
    "    for i in range(nframes):\n",
    "        fwf = cv2.imread(fw_frames[i], cv2.IMREAD_GRAYSCALE).astype(np.float32)\n",
    "        bwf = cv2.imread(bw_frames[-i-1], cv2.IMREAD_GRAYSCALE).astype(np.float32)\n",
    "        out = fwf * i/nframes + bwf * (nframes-i)/nframes\n",
    "        out = 255 - out.astype(np.uint8)\n",
    "\n",
    "        # out = cv2.threshold(out, 127, 255, cv2.THRESH_BINARY)[1]\n",
    "\n",
    "        cv2.imwrite(f\"proc/{id}/mat_mean/{i:04}.png\", out)\n",
    "\n",
    "# def crop_main_blob(id):\n",
    "#     frames = sorted(glob.glob(f\"proc/{id}/mat_mean/*.png\"))\n",
    "#     detector = cv2.SimpleBlobDetector()\n",
    "\n",
    "#     for i in range(len(frames)):\n",
    "        \n",
    "#         # keypoints = detector.detect(im), cv2.IMREAD_GRAYSCALE\n",
    "\n"
   ]
  },
  {
   "cell_type": "code",
   "execution_count": 32,
   "metadata": {},
   "outputs": [
    {
     "name": "stderr",
     "output_type": "stream",
     "text": [
      "ffmpeg version 4.2.4-1ubuntu0.1 Copyright (c) 2000-2020 the FFmpeg developers\n",
      "  built with gcc 9 (Ubuntu 9.3.0-10ubuntu2)\n",
      "  configuration: --prefix=/usr --extra-version=1ubuntu0.1 --toolchain=hardened --libdir=/usr/lib/x86_64-linux-gnu --incdir=/usr/include/x86_64-linux-gnu --arch=amd64 --enable-gpl --disable-stripping --enable-avresample --disable-filter=resample --enable-avisynth --enable-gnutls --enable-ladspa --enable-libaom --enable-libass --enable-libbluray --enable-libbs2b --enable-libcaca --enable-libcdio --enable-libcodec2 --enable-libflite --enable-libfontconfig --enable-libfreetype --enable-libfribidi --enable-libgme --enable-libgsm --enable-libjack --enable-libmp3lame --enable-libmysofa --enable-libopenjpeg --enable-libopenmpt --enable-libopus --enable-libpulse --enable-librsvg --enable-librubberband --enable-libshine --enable-libsnappy --enable-libsoxr --enable-libspeex --enable-libssh --enable-libtheora --enable-libtwolame --enable-libvidstab --enable-libvorbis --enable-libvpx --enable-libwavpack --enable-libwebp --enable-libx265 --enable-libxml2 --enable-libxvid --enable-libzmq --enable-libzvbi --enable-lv2 --enable-omx --enable-openal --enable-opencl --enable-opengl --enable-sdl2 --enable-libdc1394 --enable-libdrm --enable-libiec61883 --enable-nvenc --enable-chromaprint --enable-frei0r --enable-libx264 --enable-shared\n",
      "  libavutil      56. 31.100 / 56. 31.100\n",
      "  libavcodec     58. 54.100 / 58. 54.100\n",
      "  libavformat    58. 29.100 / 58. 29.100\n",
      "  libavdevice    58.  8.100 / 58.  8.100\n",
      "  libavfilter     7. 57.100 /  7. 57.100\n",
      "  libavresample   4.  0.  0 /  4.  0.  0\n",
      "  libswscale      5.  5.100 /  5.  5.100\n",
      "  libswresample   3.  5.100 /  3.  5.100\n",
      "  libpostproc    55.  5.100 / 55.  5.100\n",
      "Input #0, image2, from 'proc/106390524/squares/%4d.png':\n",
      "  Duration: 00:01:29.68, start: 0.000000, bitrate: N/A\n",
      "    Stream #0:0: Video: png, rgb24(pc), 884x884, 25 fps, 25 tbr, 25 tbn, 25 tbc\n",
      "Stream mapping:\n",
      "  Stream #0:0 -> #0:0 (png (native) -> h264 (libx264))\n",
      "Press [q] to stop, [?] for help\n",
      "[libx264 @ 0x55db3615e740] using cpu capabilities: MMX2 SSE2Fast SSSE3 SSE4.2 AVX FMA3 BMI2 AVX2\n",
      "[libx264 @ 0x55db3615e740] profile High, level 3.1\n",
      "[libx264 @ 0x55db3615e740] 264 - core 155 r2917 0a84d98 - H.264/MPEG-4 AVC codec - Copyleft 2003-2018 - http://www.videolan.org/x264.html - options: cabac=1 ref=3 deblock=1:0:0 analyse=0x3:0x113 me=hex subme=7 psy=1 psy_rd=1.00:0.00 mixed_ref=1 me_range=16 chroma_me=1 trellis=1 8x8dct=1 cqm=0 deadzone=21,11 fast_pskip=1 chroma_qp_offset=-2 threads=18 lookahead_threads=3 sliced_threads=0 nr=0 decimate=1 interlaced=0 bluray_compat=0 constrained_intra=0 bframes=3 b_pyramid=2 b_adapt=1 b_bias=0 direct=1 weightb=1 open_gop=0 weightp=2 keyint=250 keyint_min=25 scenecut=40 intra_refresh=0 rc_lookahead=40 rc=crf mbtree=1 crf=23.0 qcomp=0.60 qpmin=0 qpmax=69 qpstep=4 ip_ratio=1.40 aq=1:1.00\n",
      "Output #0, mp4, to 'proc/106390524/sq_fw.mp4':\n",
      "  Metadata:\n",
      "    encoder         : Lavf58.29.100\n",
      "    Stream #0:0: Video: h264 (libx264) (avc1 / 0x31637661), yuv420p, 884x884, q=-1--1, 25 fps, 12800 tbn, 25 tbc\n",
      "    Metadata:\n",
      "      encoder         : Lavc58.54.100 libx264\n",
      "    Side data:\n",
      "      cpb: bitrate max/min/avg: 0/0/0 buffer size: 0 vbv_delay: -1\n",
      "frame= 2242 fps=105 q=-1.0 Lsize=   19430kB time=00:01:29.56 bitrate=1777.2kbits/s speed=4.19x    \n",
      "video:19402kB audio:0kB subtitle:0kB other streams:0kB global headers:0kB muxing overhead: 0.140270%\n",
      "[libx264 @ 0x55db3615e740] frame I:9     Avg QP:19.77  size:127591\n",
      "[libx264 @ 0x55db3615e740] frame P:586   Avg QP:22.22  size: 22945\n",
      "[libx264 @ 0x55db3615e740] frame B:1647  Avg QP:27.12  size:  3202\n",
      "[libx264 @ 0x55db3615e740] consecutive B-frames:  1.2%  1.9%  2.4% 94.6%\n",
      "[libx264 @ 0x55db3615e740] mb I  I16..4:  5.0% 68.3% 26.8%\n",
      "[libx264 @ 0x55db3615e740] mb P  I16..4:  2.3%  6.1%  2.1%  P16..4: 41.5% 20.4% 14.9%  0.0%  0.0%    skip:12.7%\n",
      "[libx264 @ 0x55db3615e740] mb B  I16..4:  0.2%  0.4%  0.3%  B16..8: 40.5%  3.8%  0.6%  direct: 1.0%  skip:53.3%  L0:40.5% L1:53.9% BI: 5.7%\n",
      "[libx264 @ 0x55db3615e740] 8x8 transform intra:57.6% inter:63.0%\n",
      "[libx264 @ 0x55db3615e740] coded y,uvDC,uvAC intra: 45.0% 55.7% 17.5% inter: 13.8% 11.3% 0.1%\n",
      "[libx264 @ 0x55db3615e740] i16 v,h,dc,p: 37% 31% 14% 17%\n",
      "[libx264 @ 0x55db3615e740] i8 v,h,dc,ddl,ddr,vr,hd,vl,hu: 22% 17% 31%  4%  5%  5%  5%  5%  5%\n",
      "[libx264 @ 0x55db3615e740] i4 v,h,dc,ddl,ddr,vr,hd,vl,hu: 23% 33% 12%  4%  7%  6%  6%  4%  5%\n",
      "[libx264 @ 0x55db3615e740] i8c dc,h,v,p: 53% 22% 19%  6%\n",
      "[libx264 @ 0x55db3615e740] Weighted P-Frames: Y:8.7% UV:1.7%\n",
      "[libx264 @ 0x55db3615e740] ref P L0: 60.5% 23.0% 12.3%  3.9%  0.3%\n",
      "[libx264 @ 0x55db3615e740] ref B L0: 92.1%  6.9%  1.0%\n",
      "[libx264 @ 0x55db3615e740] ref B L1: 94.7%  5.3%\n",
      "[libx264 @ 0x55db3615e740] kb/s:1772.29\n",
      "ffmpeg version 4.2.4-1ubuntu0.1 Copyright (c) 2000-2020 the FFmpeg developers\n",
      "  built with gcc 9 (Ubuntu 9.3.0-10ubuntu2)\n",
      "  configuration: --prefix=/usr --extra-version=1ubuntu0.1 --toolchain=hardened --libdir=/usr/lib/x86_64-linux-gnu --incdir=/usr/include/x86_64-linux-gnu --arch=amd64 --enable-gpl --disable-stripping --enable-avresample --disable-filter=resample --enable-avisynth --enable-gnutls --enable-ladspa --enable-libaom --enable-libass --enable-libbluray --enable-libbs2b --enable-libcaca --enable-libcdio --enable-libcodec2 --enable-libflite --enable-libfontconfig --enable-libfreetype --enable-libfribidi --enable-libgme --enable-libgsm --enable-libjack --enable-libmp3lame --enable-libmysofa --enable-libopenjpeg --enable-libopenmpt --enable-libopus --enable-libpulse --enable-librsvg --enable-librubberband --enable-libshine --enable-libsnappy --enable-libsoxr --enable-libspeex --enable-libssh --enable-libtheora --enable-libtwolame --enable-libvidstab --enable-libvorbis --enable-libvpx --enable-libwavpack --enable-libwebp --enable-libx265 --enable-libxml2 --enable-libxvid --enable-libzmq --enable-libzvbi --enable-lv2 --enable-omx --enable-openal --enable-opencl --enable-opengl --enable-sdl2 --enable-libdc1394 --enable-libdrm --enable-libiec61883 --enable-nvenc --enable-chromaprint --enable-frei0r --enable-libx264 --enable-shared\n",
      "  libavutil      56. 31.100 / 56. 31.100\n",
      "  libavcodec     58. 54.100 / 58. 54.100\n",
      "  libavformat    58. 29.100 / 58. 29.100\n",
      "  libavdevice    58.  8.100 / 58.  8.100\n",
      "  libavfilter     7. 57.100 /  7. 57.100\n",
      "  libavresample   4.  0.  0 /  4.  0.  0\n",
      "  libswscale      5.  5.100 /  5.  5.100\n",
      "  libswresample   3.  5.100 /  3.  5.100\n",
      "  libpostproc    55.  5.100 / 55.  5.100\n",
      "Input #0, image2, from 'proc/106390524/squares/%4d.png':\n",
      "  Duration: 00:01:29.68, start: 0.000000, bitrate: N/A\n",
      "    Stream #0:0: Video: png, rgb24(pc), 884x884, 25 fps, 25 tbr, 25 tbn, 25 tbc\n",
      "Stream mapping:\n",
      "  Stream #0:0 -> #0:0 (png (native) -> h264 (libx264))\n",
      "Press [q] to stop, [?] for help\n",
      "[libx264 @ 0x55c3118c2280] using cpu capabilities: MMX2 SSE2Fast SSSE3 SSE4.2 AVX FMA3 BMI2 AVX2\n",
      "[libx264 @ 0x55c3118c2280] profile High, level 3.1\n",
      "[libx264 @ 0x55c3118c2280] 264 - core 155 r2917 0a84d98 - H.264/MPEG-4 AVC codec - Copyleft 2003-2018 - http://www.videolan.org/x264.html - options: cabac=1 ref=3 deblock=1:0:0 analyse=0x3:0x113 me=hex subme=7 psy=1 psy_rd=1.00:0.00 mixed_ref=1 me_range=16 chroma_me=1 trellis=1 8x8dct=1 cqm=0 deadzone=21,11 fast_pskip=1 chroma_qp_offset=-2 threads=18 lookahead_threads=3 sliced_threads=0 nr=0 decimate=1 interlaced=0 bluray_compat=0 constrained_intra=0 bframes=3 b_pyramid=2 b_adapt=1 b_bias=0 direct=1 weightb=1 open_gop=0 weightp=2 keyint=250 keyint_min=25 scenecut=40 intra_refresh=0 rc_lookahead=40 rc=crf mbtree=1 crf=23.0 qcomp=0.60 qpmin=0 qpmax=69 qpstep=4 ip_ratio=1.40 aq=1:1.00\n",
      "Output #0, mp4, to 'proc/106390524/sq_bw.mp4':\n",
      "  Metadata:\n",
      "    encoder         : Lavf58.29.100\n",
      "    Stream #0:0: Video: h264 (libx264) (avc1 / 0x31637661), yuv420p, 884x884, q=-1--1, 25 fps, 12800 tbn, 25 tbc\n",
      "    Metadata:\n",
      "      encoder         : Lavc58.54.100 libx264\n",
      "    Side data:\n",
      "      cpb: bitrate max/min/avg: 0/0/0 buffer size: 0 vbv_delay: -1\n",
      "frame= 2242 fps=102 q=-1.0 Lsize=   20512kB time=00:01:29.56 bitrate=1876.3kbits/s speed=4.08x    \n",
      "video:20485kB audio:0kB subtitle:0kB other streams:0kB global headers:0kB muxing overhead: 0.133123%\n",
      "[libx264 @ 0x55c3118c2280] frame I:9     Avg QP:19.52  size:122296\n",
      "[libx264 @ 0x55c3118c2280] frame P:592   Avg QP:22.16  size: 24666\n",
      "[libx264 @ 0x55c3118c2280] frame B:1641  Avg QP:27.12  size:  3213\n",
      "[libx264 @ 0x55c3118c2280] consecutive B-frames:  1.2%  2.9%  2.4% 93.5%\n",
      "[libx264 @ 0x55c3118c2280] mb I  I16..4:  6.1% 68.8% 25.2%\n",
      "[libx264 @ 0x55c3118c2280] mb P  I16..4:  2.4%  6.8%  2.4%  P16..4: 41.3% 20.5% 15.3%  0.0%  0.0%    skip:11.4%\n",
      "[libx264 @ 0x55c3118c2280] mb B  I16..4:  0.2%  0.4%  0.3%  B16..8: 41.1%  3.7%  0.6%  direct: 1.0%  skip:52.8%  L0:43.0% L1:51.1% BI: 5.9%\n",
      "[libx264 @ 0x55c3118c2280] 8x8 transform intra:58.2% inter:64.0%\n",
      "[libx264 @ 0x55c3118c2280] coded y,uvDC,uvAC intra: 47.8% 58.8% 18.3% inter: 14.3% 11.8% 0.1%\n",
      "[libx264 @ 0x55c3118c2280] i16 v,h,dc,p: 37% 31% 15% 18%\n",
      "[libx264 @ 0x55c3118c2280] i8 v,h,dc,ddl,ddr,vr,hd,vl,hu: 21% 17% 30%  4%  6%  6%  6%  5%  6%\n",
      "[libx264 @ 0x55c3118c2280] i4 v,h,dc,ddl,ddr,vr,hd,vl,hu: 23% 33% 11%  4%  7%  6%  6%  4%  6%\n",
      "[libx264 @ 0x55c3118c2280] i8c dc,h,v,p: 52% 22% 19%  7%\n",
      "[libx264 @ 0x55c3118c2280] Weighted P-Frames: Y:5.7% UV:1.9%\n",
      "[libx264 @ 0x55c3118c2280] ref P L0: 63.2% 20.4% 12.6%  3.6%  0.1%\n",
      "[libx264 @ 0x55c3118c2280] ref B L0: 93.4%  5.8%  0.8%\n",
      "[libx264 @ 0x55c3118c2280] ref B L1: 94.9%  5.1%\n",
      "[libx264 @ 0x55c3118c2280] kb/s:1871.20\n",
      "100%|██████████| 2242/2242 [03:10<00:00, 11.75it/s]\n",
      "100%|██████████| 2242/2242 [03:14<00:00, 11.50it/s]\n"
     ]
    }
   ],
   "source": [
    "for ID in IDS[1:2]:\n",
    "    crop_squares(ID)\n",
    "    mat_squares(ID)\n",
    "    # crop_main_blob(ID)"
   ]
  },
  {
   "cell_type": "code",
   "execution_count": null,
   "metadata": {},
   "outputs": [],
   "source": []
  }
 ],
 "metadata": {
  "interpreter": {
   "hash": "31f2aee4e71d21fbe5cf8b01ff0e069b9275f58929596ceb00d14d90e3e16cd6"
  },
  "kernelspec": {
   "display_name": "Python 3.8.10 64-bit",
   "language": "python",
   "name": "python3"
  },
  "language_info": {
   "codemirror_mode": {
    "name": "ipython",
    "version": 3
   },
   "file_extension": ".py",
   "mimetype": "text/x-python",
   "name": "python",
   "nbconvert_exporter": "python",
   "pygments_lexer": "ipython3",
   "version": "3.8.10"
  },
  "orig_nbformat": 4
 },
 "nbformat": 4,
 "nbformat_minor": 2
}
